# xmcd
#
# Track frame offsets: 
#        150
#        22110
#        41142
#        60082
#        79155
#        98137
#        118572
#        135430
#        154347
#        173045
#        188537
#        208145
#        223987
#
# Disc length: 3230 seconds
#
# Revision: 2
# Processed by: cddbd v1.5.2PL0 Copyright (c) Steve Scherf et al.
# Submitted via: ExactAudioCopyFreeDBPlugin 1.0
#
DISCID=b10c9c0d
DTITLE=罗文 - 罗文精品十三
DYEAR=1989
DGENRE=Pop
TTITLE0=骊歌
TTITLE1=可否等一会
TTITLE2=在我生命里
TTITLE3=把握
TTITLE4=几许风雨
TTITLE5=同途万里人
TTITLE6=我冷傲，但是我暖流
TTITLE7=落叶季节
TTITLE8=红尘梦
TTITLE9=纹身的猎人
TTITLE10=尘缘
TTITLE11=朋友一个
TTITLE12=我始终是我
EXTD=
EXTT0=
EXTT1=
EXTT2=
EXTT3=
EXTT4=
EXTT5=
EXTT6=
EXTT7=
EXTT8=
EXTT9=
EXTT10=
EXTT11=
EXTT12=
PLAYORDER=
